<svg width="100%" viewBox="0 0 680 638" role="img" xmlns="http://www.w3.org/2000/svg">
<title>Expertise Differentiator Framework – Cloud Native Edition</title>
<desc>Stacked chevron infographic showing five layers of cloud-native architecture expertise, vendor neutral</desc>
<text x="340" y="36" text-anchor="middle" font-family="Segoe UI,Arial,sans-serif" font-size="22" fill="#1A1A1A"><tspan font-weight="700">Expertise </tspan><tspan font-weight="400">Differentiator </tspan><tspan font-weight="700">Framework</tspan></text>
<line x1="55" y1="50" x2="625" y2="50" stroke="#CCCCCC" stroke-width="0.8"/>
<polygon points="55,520 625,520 625,608 55,608" fill="#3D3D3D"/>
<polygon points="55,405 625,405 625,498 340,528 55,498" fill="#7030A0"/>
<polygon points="55,290 625,290 625,383 340,413 55,383" fill="#D96C10"/>
<polygon points="55,175 625,175 625,268 340,298 55,268" fill="#3A8B28"/>
<polygon points="55,62 625,62 625,155 340,185 55,155" fill="#1B6BB8"/>
<text x="80" y="86" font-family="Segoe UI,Arial,sans-serif" font-size="14" font-weight="700" fill="#FFFFFF">Customer &amp; stakeholder advisory</text>
<line x1="80" y1="95" x2="435" y2="95" stroke="#FFFFFF" stroke-width="0.5" opacity="0.5"/>
<circle cx="86" cy="109" r="3" fill="#FFFFFF" opacity="0.9"/><text x="97" y="112" font-family="Segoe UI,Arial,sans-serif" font-size="12" fill="#FFFFFF">Technical leadership engagement</text>
<circle cx="86" cy="127" r="3" fill="#FFFFFF" opacity="0.9"/><text x="97" y="130" font-family="Segoe UI,Arial,sans-serif" font-size="12" fill="#FFFFFF">Empathy &amp; communication</text>
<circle cx="86" cy="145" r="3" fill="#FFFFFF" opacity="0.9"/><text x="97" y="148" font-family="Segoe UI,Arial,sans-serif" font-size="12" fill="#FFFFFF">Architectural objection handling</text>
<rect x="486" y="82" width="65" height="42" rx="7" fill="white" fill-opacity="0.22"/>
<rect x="500" y="116" width="65" height="35" rx="7" fill="white" fill-opacity="0.18"/>
<circle cx="497" cy="140" r="8" fill="white" fill-opacity="0.22"/>
<circle cx="511" cy="140" r="8" fill="white" fill-opacity="0.22"/>
<circle cx="525" cy="140" r="6" fill="white" fill-opacity="0.18"/>
<text x="80" y="200" font-family="Segoe UI,Arial,sans-serif" font-size="14" font-weight="700" fill="#FFFFFF">Cloud-native architecture depth</text>
<line x1="80" y1="209" x2="435" y2="209" stroke="#FFFFFF" stroke-width="0.5" opacity="0.5"/>
<circle cx="86" cy="223" r="3" fill="#FFFFFF" opacity="0.9"/><text x="97" y="226" font-family="Segoe UI,Arial,sans-serif" font-size="12" fill="#FFFFFF">Saga orchestration &amp; resilience</text>
<circle cx="86" cy="241" r="3" fill="#FFFFFF" opacity="0.9"/><text x="97" y="244" font-family="Segoe UI,Arial,sans-serif" font-size="12" fill="#FFFFFF">Idempotency &amp; distributed design</text>
<circle cx="86" cy="259" r="3" fill="#FFFFFF" opacity="0.9"/><text x="97" y="262" font-family="Segoe UI,Arial,sans-serif" font-size="12" fill="#FFFFFF">Multi-tenant solution architecture</text>
<circle cx="540" cy="228" r="10" fill="white" fill-opacity="0.25"/>
<line x1="540" y1="228" x2="508" y2="210" stroke="white" stroke-opacity="0.4" stroke-width="1.5"/>
<line x1="540" y1="228" x2="572" y2="210" stroke="white" stroke-opacity="0.4" stroke-width="1.5"/>
<line x1="540" y1="228" x2="540" y2="260" stroke="white" stroke-opacity="0.4" stroke-width="1.5"/>
<line x1="540" y1="228" x2="512" y2="252" stroke="white" stroke-opacity="0.4" stroke-width="1.5"/>
<circle cx="508" cy="210" r="7" fill="white" fill-opacity="0.2"/>
<circle cx="572" cy="210" r="7" fill="white" fill-opacity="0.2"/>
<circle cx="540" cy="260" r="7" fill="white" fill-opacity="0.2"/>
<circle cx="512" cy="252" r="7" fill="white" fill-opacity="0.2"/>
<text x="80" y="314" font-family="Segoe UI,Arial,sans-serif" font-size="14" font-weight="700" fill="#FFFFFF">Microservices &amp; agentic AI</text>
<line x1="80" y1="323" x2="435" y2="323" stroke="#FFFFFF" stroke-width="0.5" opacity="0.5"/>
<circle cx="86" cy="337" r="3" fill="#FFFFFF" opacity="0.9"/><text x="97" y="340" font-family="Segoe UI,Arial,sans-serif" font-size="12" fill="#FFFFFF">Containers &amp; cloud compute</text>
<circle cx="86" cy="355" r="3" fill="#FFFFFF" opacity="0.9"/><text x="97" y="358" font-family="Segoe UI,Arial,sans-serif" font-size="12" fill="#FFFFFF">LangGraph &amp; AI agent orchestration</text>
<circle cx="86" cy="373" r="3" fill="#FFFFFF" opacity="0.9"/><text x="97" y="376" font-family="Segoe UI,Arial,sans-serif" font-size="12" fill="#FFFFFF">Developer experience &amp; CI/CD</text>
<circle cx="538" cy="340" r="11" fill="white" fill-opacity="0.28"/>
<line x1="538" y1="340" x2="572" y2="340" stroke="white" stroke-opacity="0.4" stroke-width="1.5"/><circle cx="572" cy="340" r="6" fill="white" fill-opacity="0.22"/>
<line x1="538" y1="340" x2="555" y2="369" stroke="white" stroke-opacity="0.4" stroke-width="1.5"/><circle cx="555" cy="369" r="6" fill="white" fill-opacity="0.22"/>
<line x1="538" y1="340" x2="522" y2="369" stroke="white" stroke-opacity="0.4" stroke-width="1.5"/><circle cx="522" cy="369" r="6" fill="white" fill-opacity="0.22"/>
<line x1="538" y1="340" x2="504" y2="340" stroke="white" stroke-opacity="0.4" stroke-width="1.5"/><circle cx="504" cy="340" r="6" fill="white" fill-opacity="0.22"/>
<line x1="538" y1="340" x2="521" y2="311" stroke="white" stroke-opacity="0.4" stroke-width="1.5"/><circle cx="521" cy="311" r="6" fill="white" fill-opacity="0.22"/>
<line x1="538" y1="340" x2="555" y2="311" stroke="white" stroke-opacity="0.4" stroke-width="1.5"/><circle cx="555" cy="311" r="6" fill="white" fill-opacity="0.22"/>
<text x="80" y="429" font-family="Segoe UI,Arial,sans-serif" font-size="14" font-weight="700" fill="#FFFFFF">Pattern &amp; IP development</text>
<line x1="80" y1="438" x2="435" y2="438" stroke="#FFFFFF" stroke-width="0.5" opacity="0.5"/>
<circle cx="86" cy="452" r="3" fill="#FFFFFF" opacity="0.9"/><text x="97" y="455" font-family="Segoe UI,Arial,sans-serif" font-size="12" fill="#FFFFFF">Cloud architecture patterns</text>
<circle cx="86" cy="470" r="3" fill="#FFFFFF" opacity="0.9"/><text x="97" y="473" font-family="Segoe UI,Arial,sans-serif" font-size="12" fill="#FFFFFF">RAG &amp; vector search design</text>
<circle cx="86" cy="488" r="3" fill="#FFFFFF" opacity="0.9"/><text x="97" y="491" font-family="Segoe UI,Arial,sans-serif" font-size="12" fill="#FFFFFF">Reusable templates &amp; guides</text>
<ellipse cx="508" cy="443" rx="20" ry="7" fill="white" fill-opacity="0.25"/>
<rect x="488" y="443" width="40" height="32" fill="white" fill-opacity="0.18"/>
<ellipse cx="508" cy="475" rx="20" ry="7" fill="white" fill-opacity="0.22"/>
<ellipse cx="508" cy="455" rx="20" ry="7" fill="white" fill-opacity="0.15"/>
<rect x="543" y="437" width="42" height="50" rx="4" fill="white" fill-opacity="0.22"/>
<line x1="552" y1="451" x2="576" y2="451" stroke="white" stroke-opacity="0.5" stroke-width="1.5"/>
<line x1="552" y1="460" x2="576" y2="460" stroke="white" stroke-opacity="0.5" stroke-width="1.5"/>
<line x1="552" y1="469" x2="576" y2="469" stroke="white" stroke-opacity="0.5" stroke-width="1.5"/>
<text x="340" y="558" text-anchor="middle" font-family="Segoe UI,Arial,sans-serif" font-size="15" font-weight="700" fill="#FFFFFF" letter-spacing="2">PROACTIVE ARCHITECTURE LEADERSHIP</text>
<text x="340" y="582" text-anchor="middle" font-family="Segoe UI,Arial,sans-serif" font-size="12" fill="#FFFFFF" opacity="0.85">From customer advisory to scalable, global impact</text>
</svg>
